<svg xmlns="http://www.w3.org/2000/svg"  viewBox="0 0 100 100" width="100px" height="100px"><path fill="#ee3e54" d="M13 27A2 2 0 1 0 13 31A2 2 0 1 0 13 27Z"/><path fill="#f1bc19" d="M77 12A1 1 0 1 0 77 14A1 1 0 1 0 77 12Z"/><path fill="#fce0a2" d="M50 13A37 37 0 1 0 50 87A37 37 0 1 0 50 13Z"/><path fill="#f1bc19" d="M83 11A4 4 0 1 0 83 19A4 4 0 1 0 83 11Z"/><path fill="#ee3e54" d="M87 22A2 2 0 1 0 87 26A2 2 0 1 0 87 22Z"/><path fill="#fbcd59" d="M81 74A2 2 0 1 0 81 78 2 2 0 1 0 81 74zM15 59A4 4 0 1 0 15 67 4 4 0 1 0 15 59z"/><path fill="#ee3e54" d="M25 85A2 2 0 1 0 25 89A2 2 0 1 0 25 85Z"/><path fill="#fff" d="M18.5 51A2.5 2.5 0 1 0 18.5 56A2.5 2.5 0 1 0 18.5 51Z"/><path fill="#f1bc19" d="M21 66A1 1 0 1 0 21 68A1 1 0 1 0 21 66Z"/><path fill="#fff" d="M80 33A1 1 0 1 0 80 35A1 1 0 1 0 80 33Z"/><path fill="#fed5b3" d="M65,73H35c-4.4,0-8-3.6-8-8V35c0-4.4,3.6-8,8-8h30c4.4,0,8,3.6,8,8v30C73,69.4,69.4,73,65,73z"/><path fill="#d68f53" d="M65.625,28h-31.25C30.854,28,28,30.854,28,34.375V42h44v-7.625C72,30.854,69.146,28,65.625,28z"/><path fill="#472b29" d="M61 41.938H28.064c-.276 0-.5-.224-.5-.5s.224-.5.5-.5H61c.276 0 .5.224.5.5S61.276 41.938 61 41.938zM72.001 41.938H66c-.276 0-.5-.224-.5-.5s.224-.5.5-.5h6.001c.276 0 .5.224.5.5S72.277 41.938 72.001 41.938z"/><path fill="#fefdef" d="M50 39A11 11 0 1 0 50 61A11 11 0 1 0 50 39Z"/><path fill="#472b29" d="M50,61.5c-6.341,0-11.5-5.159-11.5-11.5S43.659,38.5,50,38.5S61.5,43.659,61.5,50 S56.341,61.5,50,61.5z M50,39.5c-5.79,0-10.5,4.71-10.5,10.5S44.21,60.5,50,60.5S60.5,55.79,60.5,50S55.79,39.5,50,39.5z"/><g><path fill="#f15b6c" d="M33,27.5L33,27.5c-1.1,0-2,0.9-2,2v12h2V27.5z"/></g><g><path fill="#8f9eb6" d="M50 43A7 7 0 1 0 50 57A7 7 0 1 0 50 43Z"/></g><g><path fill="#77cbd2" d="M46.5 45A2.5 2.5 0 1 0 46.5 50A2.5 2.5 0 1 0 46.5 45Z"/><path fill="#472b29" d="M46.5,50.5c-1.654,0-3-1.346-3-3s1.346-3,3-3s3,1.346,3,3S48.154,50.5,46.5,50.5z M46.5,45.5 c-1.103,0-2,0.897-2,2s0.897,2,2,2s2-0.897,2-2S47.603,45.5,46.5,45.5z"/></g><g><path fill="#b77748" d="M61.5 32.5H67.5V38.5H61.5z"/><path fill="#472b29" d="M68,39h-7v-7h7V39z M62,38h5v-5h-5V38z"/></g><g><path fill="#f9e65c" d="M33 28H35V41H33z"/></g><g><path fill="#a1d3a2" d="M35 28H37V41H35z"/></g><g><path fill="#39c2d8" d="M37 28H39V41H37z"/></g><g><path fill="#472b29" d="M65,28.4c3.639,0,6.6,2.961,6.6,6.6v30c0,3.639-2.961,6.6-6.6,6.6H35c-3.639,0-6.6-2.961-6.6-6.6V35 c0-3.639,2.961-6.6,6.6-6.6H65 M65,27H35c-4.4,0-8,3.6-8,8v30c0,4.4,3.6,8,8,8h30c4.4,0,8-3.6,8-8V35C73,30.6,69.4,27,65,27L65,27z"/></g><g><path fill="#b77748" d="M37.744,39.767h-5.545c-0.766,0-1.386,0.62-1.386,1.386c0,0.766,0.62,1.386,1.386,1.386h5.545 c0.766,0,1.386-0.62,1.386-1.386C39.131,40.387,38.51,39.767,37.744,39.767z"/><path fill="#472b29" d="M37.744,43.04h-5.545c-1.04,0-1.887-0.847-1.887-1.887s0.847-1.887,1.887-1.887h5.545 c1.04,0,1.887,0.847,1.887,1.887S38.784,43.04,37.744,43.04z M32.199,40.267c-0.489,0-0.887,0.397-0.887,0.887 s0.397,0.887,0.887,0.887h5.545c0.489,0,0.887-0.397,0.887-0.887s-0.397-0.887-0.887-0.887H32.199z"/></g><g><path fill="#472b29" d="M55.805,54.414c-0.097,0-0.194-0.027-0.28-0.086c-0.229-0.154-0.289-0.465-0.134-0.694 C56.116,52.56,56.5,51.303,56.5,50c0-0.276,0.224-0.5,0.5-0.5s0.5,0.224,0.5,0.5c0,1.504-0.443,2.954-1.281,4.194 C56.122,54.337,55.965,54.414,55.805,54.414z"/></g><g><path fill="#472b29" d="M50,57.5c-4.136,0-7.5-3.364-7.5-7.5s3.364-7.5,7.5-7.5c2.676,0,5.168,1.442,6.504,3.764 c0.138,0.239,0.055,0.545-0.185,0.683c-0.238,0.136-0.545,0.056-0.683-0.185C54.479,44.75,52.319,43.5,50,43.5 c-3.584,0-6.5,2.916-6.5,6.5s2.916,6.5,6.5,6.5c0.276,0,0.5,0.224,0.5,0.5S50.276,57.5,50,57.5z"/></g></svg>